<?xml version="1.0" standalone="no"?>
<!DOCTYPE svg PUBLIC "-//W3C//DTD SVG 20010904//EN"
 "http://www.w3.org/TR/2001/REC-SVG-20010904/DTD/svg10.dtd">
<svg version="1.0" xmlns="http://www.w3.org/2000/svg"
 width="1536.000000pt" height="1024.000000pt" viewBox="0 0 1536.000000 1024.000000"
 preserveAspectRatio="xMidYMid meet">

<g transform="translate(0.000000,1024.000000) scale(0.100000,-0.100000)"
fill="#000000" stroke="none">
<path d="M6613 5295 l-2 -1185 1009 0 1010 0 0 85 0 85 -918 0 -919 0 1 1100
1 1100 -90 0 -90 0 -2 -1185z"/>
<path d="M7000 6395 l0 -85 815 0 815 0 0 85 0 85 -815 0 -815 0 0 -85z"/>
<path d="M7000 5315 l0 -85 799 0 c440 0 806 -3 815 -6 14 -5 16 6 16 85 l0
91 -815 0 -815 0 0 -85z"/>
</g>
</svg>
